<?xml version="1.0" standalone="no"?>
<!DOCTYPE svg PUBLIC "-//W3C//DTD SVG 20010904//EN"
 "http://www.w3.org/TR/2001/REC-SVG-20010904/DTD/svg10.dtd">
<svg version="1.0" xmlns="http://www.w3.org/2000/svg"
 width="128.000000pt" height="128.000000pt" viewBox="0 0 128.000000 128.000000"
 preserveAspectRatio="xMidYMid meet">

<g transform="translate(0.000000,128.000000) scale(0.100000,-0.100000)"
fill="#000000" stroke="none">
<path d="M452 1214 c-19 -13 -22 -24 -22 -80 l0 -64 -113 0 c-86 0 -118 -4
-135 -16 -27 -18 -29 -55 -4 -77 17 -15 64 -17 464 -17 418 0 446 1 461 18 23
26 21 58 -5 76 -17 12 -49 16 -135 16 l-113 0 0 64 c0 94 -4 96 -210 96 -134
0 -170 -3 -188 -16z m298 -119 l0 -25 -110 0 -110 0 0 25 0 25 110 0 110 0 0
-25z"/>
<path d="M229 889 c-20 -20 -20 -28 -17 -352 l3 -332 28 -47 c18 -31 44 -57
75 -75 l47 -28 275 0 275 0 47 28 c31 18 57 44 75 75 l28 47 3 319 c2 176 1
330 -3 343 -9 36 -48 50 -80 29 l-25 -16 0 -326 0 -326 -34 -34 -34 -34 -252
0 -252 0 -34 34 -34 34 0 325 c0 325 0 326 -22 341 -30 21 -44 20 -69 -5z"/>
<path d="M497 782 c-15 -16 -17 -47 -17 -224 0 -186 2 -206 18 -221 26 -23 58
-21 76 5 13 19 16 57 16 218 0 161 -3 199 -16 218 -18 27 -55 29 -77 4z"/>
<path d="M706 778 c-13 -19 -16 -57 -16 -218 0 -161 3 -199 16 -218 18 -27 55
-29 77 -4 15 16 17 47 17 224 0 186 -2 206 -18 221 -26 23 -58 21 -76 -5z"/>
</g>
</svg>
